<svg id="svg" version="1.1" xmlns="http://www.w3.org/2000/svg" xmlns:xlink="http://www.w3.org/1999/xlink" width="400" height="400" viewBox="0, 0, 400,400"><g id="svgg"><path id="path0" d="M113.000 54.825 C 59.498 60.338,25.685 104.101,33.898 157.205 C 42.694 214.078,90.222 274.378,166.200 325.061 C 176.826 332.149,198.751 345.200,200.033 345.200 C 201.373 345.200,223.201 332.130,234.944 324.297 C 338.642 255.116,388.985 164.716,358.625 102.200 C 331.898 47.166,255.244 38.100,204.514 83.974 L 200.027 88.031 196.353 84.715 C 171.556 62.339,142.209 51.815,113.000 54.825 M124.895 68.000 C 125.954 70.530,128.183 75.509,129.847 79.065 C 133.357 86.566,133.355 86.493,130.163 88.633 C 121.129 94.692,93.926 101.060,88.800 98.316 C 87.312 97.519,83.406 81.639,83.117 75.209 L 83.000 72.618 85.110 71.478 C 93.384 67.009,109.661 63.220,119.984 63.360 L 122.967 63.400 124.895 68.000 M125.907 63.700 C 126.130 63.975,127.073 66.000,128.005 68.200 C 144.657 107.548,179.362 165.555,188.730 169.699 C 192.144 171.209,195.835 170.087,197.328 167.084 C 198.677 164.373,199.579 144.218,199.592 116.500 C 199.596 107.645,199.752 100.400,199.937 100.400 C 200.123 100.400,200.386 111.065,200.522 124.100 C 200.796 150.387,201.530 164.796,202.715 167.174 C 205.136 172.032,211.539 171.321,216.110 165.688 C 232.917 144.971,257.999 101.356,271.599 69.200 C 274.183 63.089,274.832 62.174,275.444 63.771 C 275.841 64.805,267.097 83.761,260.300 96.600 C 251.388 113.437,231.410 147.202,223.262 159.200 C 216.358 169.365,214.335 174.785,216.043 178.535 C 216.435 179.395,216.255 179.851,214.501 182.454 C 209.974 189.168,209.974 189.177,213.800 194.800 C 217.300 199.944,217.134 199.411,215.500 200.235 C 209.659 203.178,209.446 205.666,213.777 220.400 C 220.287 242.550,224.983 267.052,229.988 304.988 C 231.366 315.438,231.401 316.000,230.663 316.000 C 230.272 316.000,229.990 314.719,229.627 311.300 C 229.112 306.453,228.249 300.297,226.866 291.600 C 226.428 288.850,225.774 284.620,225.413 282.200 C 222.295 261.347,216.966 236.600,212.939 224.275 C 211.291 219.231,211.481 220.937,213.401 228.427 C 215.146 235.231,215.528 237.600,214.881 237.600 C 214.706 237.600,212.861 237.203,210.781 236.717 C 205.325 235.442,194.675 235.442,189.219 236.717 C 187.139 237.203,185.294 237.600,185.119 237.600 C 184.483 237.600,184.834 235.484,186.617 228.558 C 187.616 224.676,188.365 221.432,188.282 221.349 C 187.799 220.865,183.303 237.215,181.008 247.800 C 180.436 250.440,179.617 254.220,179.189 256.200 C 177.884 262.233,176.073 272.565,174.378 283.654 C 171.544 302.198,170.868 306.901,170.377 311.500 C 170.023 314.810,169.751 316.000,169.348 316.000 C 169.047 316.000,168.800 315.765,168.800 315.477 C 168.800 314.613,170.315 302.689,171.402 295.000 C 176.245 260.742,180.838 238.042,187.166 217.100 C 190.460 206.197,189.940 202.529,184.796 200.398 C 183.122 199.705,183.241 199.269,186.400 194.545 C 189.977 189.195,189.950 188.868,185.394 182.213 C 183.680 179.709,183.577 179.421,184.018 178.357 C 185.565 174.621,183.712 169.544,177.393 160.212 C 159.218 133.370,123.124 67.501,124.552 63.781 C 124.826 63.068,125.369 63.035,125.907 63.700 M136.400 64.251 C 155.206 66.953,173.421 75.846,189.700 90.271 C 195.562 95.465,195.365 96.000,187.589 96.000 C 173.802 96.000,149.417 90.683,139.471 85.508 L 136.276 83.846 134.277 79.623 C 129.400 69.321,127.285 64.201,127.698 63.693 C 128.144 63.144,129.148 63.208,136.400 64.251 M272.340 63.554 C 272.928 63.927,270.173 70.558,265.681 79.581 L 263.400 84.161 260.800 85.474 C 250.270 90.789,226.277 96.000,212.338 96.000 C 204.697 96.000,204.478 95.455,210.112 90.460 C 228.029 74.570,248.403 65.297,269.400 63.473 C 270.280 63.397,271.180 63.307,271.400 63.273 C 271.620 63.240,272.043 63.366,272.340 63.554 M291.927 64.405 C 300.175 65.753,306.878 67.755,313.747 70.924 L 317.294 72.560 317.035 75.092 C 316.451 80.788,313.031 96.332,311.991 98.015 C 309.671 101.768,278.564 94.770,269.538 88.464 C 266.682 86.469,266.648 86.751,270.827 77.730 C 272.848 73.369,274.938 68.645,275.472 67.233 C 277.187 62.701,276.576 63.048,282.271 63.365 C 285.011 63.517,289.357 63.985,291.927 64.405 M81.782 74.500 C 81.891 74.995,82.352 77.560,82.808 80.200 C 84.693 91.117,88.512 104.223,92.584 113.746 C 93.606 116.136,94.347 118.186,94.231 118.303 C 92.536 119.997,86.012 102.291,82.566 86.644 C 79.976 74.887,79.951 74.741,80.443 74.148 C 81.102 73.354,81.557 73.474,81.782 74.500 M319.858 74.206 C 320.160 74.993,315.894 94.261,314.325 99.200 C 310.669 110.710,306.843 119.347,305.837 118.364 C 305.704 118.235,306.422 116.165,307.432 113.764 C 312.135 102.585,315.351 91.442,317.405 79.200 C 317.756 77.110,318.127 74.995,318.229 74.500 C 318.440 73.481,319.506 73.288,319.858 74.206 M79.373 76.100 C 79.476 76.595,80.030 79.340,80.604 82.200 C 81.178 85.060,82.289 89.995,83.071 93.167 C 84.723 99.863,84.695 101.079,82.752 106.881 C 78.254 120.313,66.590 134.566,56.000 139.571 C 51.873 141.521,51.588 141.434,46.610 136.716 L 42.301 132.633 42.562 129.816 C 44.465 109.286,56.399 89.835,74.800 77.271 C 78.127 74.999,79.091 74.752,79.373 76.100 M326.110 77.900 C 344.191 90.681,355.551 109.517,357.441 129.850 L 357.699 132.633 353.390 136.716 C 347.801 142.013,346.196 141.946,338.400 136.088 C 323.440 124.849,313.642 105.919,316.703 94.169 C 317.822 89.872,319.154 83.877,320.405 77.500 C 320.994 74.501,321.334 74.524,326.110 77.900 M141.525 87.562 C 148.206 90.921,162.025 94.272,178.200 96.454 C 183.303 97.142,191.349 97.131,193.759 96.431 L 195.719 95.863 197.059 97.325 L 198.400 98.788 198.400 118.014 C 198.400 138.888,198.460 138.295,196.136 140.456 C 189.252 146.856,174.608 144.834,165.666 136.249 C 162.188 132.910,146.739 105.781,139.257 89.876 C 137.036 85.154,136.937 85.255,141.525 87.562 M262.174 86.900 C 261.017 90.623,243.231 123.528,237.797 132.000 C 230.389 143.550,212.095 148.109,203.864 140.456 C 201.540 138.295,201.600 138.888,201.600 118.014 L 201.600 98.788 202.950 97.316 C 204.293 95.849,204.306 95.845,205.983 96.348 C 214.491 98.897,247.503 93.312,258.800 87.413 C 261.955 85.765,262.555 85.674,262.174 86.900 M136.026 91.700 C 140.489 100.598,151.886 120.949,158.580 131.973 C 162.684 138.731,161.754 146.038,156.129 151.223 L 154.370 152.844 151.485 151.209 C 147.078 148.710,137.043 143.707,128.600 139.800 C 99.053 126.126,96.348 123.656,89.978 104.535 C 88.328 99.582,88.204 99.746,93.661 99.689 C 105.700 99.564,125.540 93.807,131.800 88.623 C 133.606 87.127,133.806 87.272,136.026 91.700 M269.150 89.198 C 277.194 94.689,294.274 99.507,306.454 99.720 L 311.000 99.800 310.921 101.226 C 310.840 102.664,308.495 109.293,305.821 115.637 C 302.292 124.012,296.873 127.804,271.003 140.000 C 259.030 145.645,253.411 148.460,247.927 151.561 L 245.653 152.846 244.005 151.357 C 240.925 148.575,238.800 143.590,238.800 139.148 C 238.800 136.513,239.124 135.733,242.595 130.009 C 248.728 119.894,259.140 101.353,264.000 91.893 C 266.544 86.941,266.147 87.148,269.150 89.198 M86.633 104.905 C 87.015 106.057,88.195 109.110,89.254 111.689 L 91.181 116.379 90.414 118.889 C 87.214 129.371,85.306 141.453,84.916 153.707 C 84.681 161.087,84.663 161.211,83.839 160.977 C 79.211 159.662,66.104 152.235,58.852 146.817 C 52.369 141.973,52.514 142.293,56.058 140.672 C 66.877 135.723,79.384 120.535,83.620 107.200 C 84.284 105.110,84.909 103.164,85.011 102.875 C 85.322 101.983,85.908 102.716,86.633 104.905 M316.182 106.586 C 320.386 120.322,334.051 136.832,344.539 140.846 C 347.549 141.998,347.480 142.168,342.500 145.885 C 333.807 152.375,321.684 159.308,316.100 160.984 L 315.200 161.254 315.196 155.727 C 315.188 146.083,313.514 133.515,310.916 123.600 C 310.137 120.630,309.412 117.703,309.304 117.096 C 309.171 116.345,309.872 114.042,311.498 109.896 C 312.813 106.543,314.010 103.455,314.157 103.033 C 314.558 101.891,314.963 102.602,316.182 106.586 M46.804 138.146 C 56.668 147.395,68.854 155.520,80.181 160.400 C 84.328 162.187,86.385 163.684,83.800 163.036 C 73.204 160.376,40.218 138.007,42.189 134.818 C 42.583 134.180,42.548 134.155,46.804 138.146 M358.000 135.171 C 358.000 139.341,326.202 160.526,316.159 163.046 C 313.988 163.591,315.436 162.329,318.404 161.090 C 330.827 155.904,347.127 144.893,355.654 135.928 C 357.260 134.239,358.000 134.001,358.000 135.171 M46.062 140.900 C 50.123 144.620,50.997 146.099,56.363 158.334 C 65.203 178.490,71.650 198.870,75.755 219.638 C 78.272 232.372,78.184 233.073,74.671 228.300 C 60.208 208.652,48.737 184.489,44.409 164.556 C 42.266 154.687,40.917 137.600,42.280 137.600 C 42.378 137.600,44.080 139.085,46.062 140.900 M358.247 138.643 C 360.278 146.738,354.315 174.123,346.803 191.192 C 340.762 204.921,324.972 231.200,322.764 231.200 C 320.417 231.200,329.865 193.909,337.206 174.200 C 344.271 155.234,349.181 145.393,353.711 141.119 C 357.847 137.216,357.884 137.197,358.247 138.643 M174.840 143.151 C 181.951 146.361,190.421 145.846,195.959 141.868 C 197.039 141.092,198.030 140.564,198.162 140.695 C 198.802 141.336,197.579 165.349,196.836 166.728 C 195.302 169.573,191.350 170.467,188.274 168.665 C 185.801 167.215,177.291 155.896,169.750 144.026 C 166.360 138.691,166.361 138.258,169.759 140.404 C 171.145 141.279,173.431 142.515,174.840 143.151 M166.619 145.292 C 169.777 150.411,174.350 157.334,179.908 165.414 C 182.297 168.886,183.696 172.988,183.524 176.018 C 183.350 179.081,183.132 178.953,177.185 172.274 C 171.441 165.824,166.066 160.884,160.784 157.200 C 158.923 155.902,156.982 154.516,156.471 154.120 L 155.543 153.399 157.179 151.600 C 159.275 149.295,161.079 145.653,161.636 142.600 C 162.445 138.175,162.120 138.000,166.619 145.292 M232.646 140.300 C 231.278 142.922,222.949 155.129,218.464 161.089 C 212.642 168.824,211.327 169.849,207.703 169.475 C 203.028 168.992,202.774 168.204,201.965 151.658 C 201.429 140.705,201.473 140.262,202.985 141.211 C 203.501 141.535,204.710 142.288,205.672 142.885 C 211.860 146.727,221.321 145.903,229.600 140.802 C 232.757 138.857,233.460 138.741,232.646 140.300 M238.209 141.700 C 238.656 144.998,240.266 148.522,242.483 151.056 L 244.501 153.362 243.551 154.109 C 243.028 154.519,241.090 155.909,239.244 157.197 C 232.765 161.718,229.533 164.829,218.465 177.200 C 214.560 181.564,216.259 170.636,220.355 165.044 C 223.803 160.335,228.162 153.768,232.199 147.200 C 237.953 137.836,237.716 138.054,238.209 141.700 M60.478 151.864 C 67.720 156.711,72.656 159.440,79.200 162.213 C 85.719 164.974,85.382 164.658,85.990 168.600 C 87.541 178.668,93.262 191.771,100.057 200.819 C 103.367 205.228,103.355 205.050,100.500 207.072 C 94.793 211.114,84.536 221.673,80.425 227.736 C 78.768 230.179,78.643 230.021,77.609 224.200 C 73.369 200.311,66.424 178.034,56.099 155.200 C 54.457 151.570,53.016 148.160,52.895 147.622 L 52.677 146.643 53.840 147.422 C 54.480 147.850,57.467 149.849,60.478 151.864 M345.921 150.706 C 334.588 175.120,326.574 200.176,322.417 224.186 C 321.411 229.996,321.247 230.200,319.571 227.736 C 315.048 221.087,301.068 207.007,297.700 205.707 C 296.808 205.363,297.163 204.430,299.150 201.891 C 306.191 192.895,311.582 181.148,313.644 170.310 C 314.755 164.466,314.414 164.917,319.227 162.935 C 327.234 159.639,334.705 155.432,343.227 149.424 C 347.757 146.230,347.955 146.324,345.921 150.706 M113.200 154.645 C 137.303 159.465,157.952 171.162,171.421 187.626 L 173.691 190.401 172.978 191.500 C 164.672 204.295,146.430 209.482,133.226 202.804 C 117.994 195.100,102.000 170.464,102.000 154.704 C 102.000 152.827,104.056 152.816,113.200 154.645 M297.874 153.849 C 298.753 156.139,295.506 167.331,291.587 175.525 C 276.753 206.535,249.028 215.292,230.044 194.964 C 225.519 190.119,225.424 190.459,233.553 182.385 C 244.918 171.098,256.201 164.022,270.857 158.992 C 282.869 154.869,297.217 152.138,297.874 153.849 M185.571 201.625 C 187.522 203.038,188.778 205.451,188.791 207.809 C 188.800 209.455,188.456 210.756,185.621 219.800 C 184.228 224.245,182.812 229.288,181.156 235.700 C 180.663 237.612,180.842 237.651,176.282 234.644 C 172.267 231.997,166.795 229.408,160.592 227.221 C 155.938 225.580,156.030 225.753,157.982 222.334 C 160.319 218.239,160.587 217.970,164.859 215.412 C 169.496 212.636,175.831 207.415,179.448 203.390 C 182.517 199.975,183.072 199.815,185.571 201.625 M222.187 204.944 C 227.257 210.015,231.823 213.623,236.220 216.037 C 241.004 218.663,245.420 226.400,242.134 226.400 C 239.844 226.400,227.788 231.876,223.203 234.998 C 219.479 237.534,219.301 237.580,218.966 236.100 C 218.248 232.938,215.855 224.377,214.410 219.800 C 210.691 208.028,210.592 207.370,212.100 204.391 C 213.020 202.572,215.607 200.437,216.921 200.413 C 217.318 200.406,219.684 202.442,222.187 204.944 M197.169 204.909 C 194.676 206.589,190.861 212.534,190.180 215.800 C 190.042 216.460,190.747 215.380,191.746 213.400 C 197.766 201.473,201.904 201.473,208.317 213.400 C 210.345 217.170,210.194 215.898,208.115 211.686 C 204.827 205.027,200.745 202.499,197.169 204.909 M104.200 206.692 C 104.200 206.926,103.120 207.917,101.800 208.894 C 98.527 211.317,88.820 220.746,85.179 225.040 C 83.541 226.971,81.599 229.193,80.865 229.976 L 79.530 231.400 80.405 229.759 C 84.410 222.252,104.200 203.067,104.200 206.692 M299.117 207.684 C 304.941 211.979,317.434 225.354,319.615 229.629 C 320.791 231.934,320.474 231.655,316.290 226.700 C 312.014 221.637,302.877 212.569,298.503 209.047 C 295.915 206.963,295.263 206.000,296.441 206.000 C 296.657 206.000,297.861 206.758,299.117 207.684 M108.897 210.643 C 120.199 221.057,133.333 224.850,147.767 221.867 C 151.367 221.124,151.746 221.261,152.434 223.555 C 152.856 224.963,152.704 225.356,148.262 234.408 C 144.029 243.035,137.941 256.895,133.596 267.800 C 131.050 274.188,131.139 274.123,129.237 270.943 C 122.026 258.887,101.067 241.934,84.720 234.935 C 79.706 232.788,79.767 233.085,83.402 228.523 C 88.866 221.667,103.451 207.601,105.097 207.600 C 105.371 207.600,107.081 208.970,108.897 210.643 M297.454 209.206 C 302.163 212.761,313.447 224.284,317.965 230.150 C 320.074 232.890,320.080 232.880,315.280 234.935 C 299.501 241.691,279.716 257.426,271.693 269.600 C 270.460 271.470,269.391 273.079,269.316 273.176 C 268.997 273.591,268.062 271.993,266.992 269.200 C 263.048 258.911,255.625 242.038,250.820 232.440 C 247.229 225.265,247.185 225.143,247.654 223.578 C 248.357 221.232,248.641 221.126,252.233 221.864 C 266.954 224.889,280.165 221.003,291.479 210.319 C 294.864 207.122,294.728 207.148,297.454 209.206 M158.400 219.579 C 158.400 219.787,157.735 221.092,156.922 222.479 C 155.208 225.404,146.945 242.304,142.376 252.231 C 138.347 260.985,136.566 265.495,133.161 275.573 C 130.288 284.079,129.479 287.503,131.743 281.584 C 133.704 276.455,133.293 276.681,138.000 278.145 C 146.694 280.850,157.944 287.438,166.275 294.704 C 170.131 298.068,170.051 297.715,168.959 306.400 C 168.448 310.470,168.023 314.025,168.015 314.300 C 167.942 316.739,130.400 288.654,130.400 286.161 C 130.400 285.474,130.222 285.322,129.605 285.483 C 128.400 285.798,128.175 284.592,129.002 282.251 C 137.293 258.801,158.400 213.804,158.400 219.579 M242.954 220.187 C 248.731 229.003,257.419 247.789,268.174 274.721 C 271.630 283.375,272.071 285.044,271.011 285.451 C 270.603 285.608,270.174 285.488,269.966 285.158 C 269.716 284.763,269.610 284.956,269.606 285.815 C 269.601 286.753,269.211 287.354,267.900 288.446 C 255.303 298.936,234.085 314.800,232.653 314.800 C 232.294 314.800,232.000 314.570,232.000 314.289 C 232.000 314.008,231.640 310.908,231.200 307.400 C 230.011 297.918,229.970 298.233,232.700 295.678 C 240.102 288.751,252.384 281.332,261.285 278.411 C 266.391 276.735,266.330 276.712,267.966 280.904 C 270.972 288.607,269.367 282.573,265.330 271.000 C 261.534 260.116,247.075 228.688,242.607 221.611 C 242.053 220.734,241.600 219.832,241.600 219.608 C 241.600 218.880,242.292 219.176,242.954 220.187 M155.356 220.328 C 155.674 220.843,154.033 223.277,153.488 223.098 C 152.533 222.785,152.668 220.825,153.673 220.422 C 154.869 219.943,155.109 219.930,155.356 220.328 M247.060 220.943 C 247.587 221.466,247.085 223.200,246.407 223.200 C 245.860 223.200,244.378 220.759,244.654 220.312 C 244.908 219.902,246.409 220.296,247.060 220.943 M162.930 229.156 C 168.079 231.089,175.104 234.657,177.800 236.706 C 180.278 238.590,180.345 239.033,179.041 244.880 C 176.754 255.128,172.879 277.281,170.974 291.000 C 170.142 296.991,170.218 296.928,167.149 294.172 C 158.322 286.245,140.756 276.400,135.440 276.400 C 134.460 276.400,134.227 275.357,134.785 273.470 C 136.519 267.604,143.264 252.092,151.227 235.657 L 155.367 227.114 157.043 227.344 C 157.965 227.470,160.614 228.285,162.930 229.156 M248.904 235.900 C 256.645 251.808,261.781 263.526,264.813 272.200 C 266.070 275.796,265.959 276.226,263.660 276.645 C 256.162 278.011,240.398 287.062,232.489 294.541 C 229.857 297.030,229.919 297.114,228.845 289.600 C 227.142 277.673,223.931 258.926,222.097 250.200 C 219.666 238.634,219.665 238.652,222.200 236.716 C 226.420 233.492,240.564 227.216,243.635 227.204 C 244.588 227.200,245.006 227.891,248.904 235.900 M86.837 237.114 C 106.085 246.838,126.627 264.553,130.054 274.383 C 130.543 275.786,128.330 283.388,127.320 283.775 C 125.327 284.540,95.088 254.231,83.460 239.815 C 77.815 232.816,78.014 232.656,86.837 237.114 M320.400 234.536 C 320.400 238.261,274.635 285.289,272.629 283.624 C 272.345 283.389,271.514 281.426,270.782 279.264 L 269.451 275.331 270.365 273.566 C 276.423 261.866,294.279 246.657,313.163 237.114 C 319.462 233.931,320.400 233.597,320.400 234.536 M206.800 236.994 C 211.846 237.778,214.792 238.608,215.630 239.483 C 217.010 240.924,222.160 266.730,225.193 287.400 C 225.645 290.480,226.163 293.935,226.344 295.079 C 226.828 298.127,226.749 298.160,221.775 296.985 C 209.511 294.087,190.410 294.107,178.029 297.032 C 172.905 298.242,173.135 298.604,174.266 291.096 C 178.126 265.472,182.989 240.840,184.482 239.347 C 186.672 237.156,199.280 235.827,206.800 236.994 M211.400 296.217 C 216.513 296.817,225.176 298.550,226.449 299.228 C 227.148 299.600,227.446 301.205,228.642 311.045 C 229.019 314.149,229.217 316.978,229.082 317.331 C 228.663 318.422,201.337 336.000,200.060 336.000 C 199.237 336.000,183.962 326.531,175.800 320.961 L 171.000 317.685 171.106 314.742 C 171.208 311.933,172.581 301.356,173.031 299.912 C 173.267 299.157,174.332 298.802,180.000 297.588 C 189.224 295.612,201.621 295.070,211.400 296.217 " stroke="none" fill="#0a0404" fill-rule="evenodd"></path><path id="path1" d="M115.400 63.467 C 104.480 64.471,91.946 67.786,85.110 71.478 L 83.000 72.618 83.117 75.209 C 83.406 81.639,87.312 97.519,88.800 98.316 C 93.926 101.060,121.129 94.692,130.163 88.633 C 133.355 86.493,133.357 86.566,129.847 79.065 C 128.183 75.509,125.954 70.530,124.895 68.000 L 122.967 63.400 119.984 63.360 C 118.343 63.338,116.280 63.386,115.400 63.467 M124.552 63.781 C 124.095 64.973,136.195 90.429,143.385 103.400 C 153.335 121.351,170.530 150.076,177.393 160.212 C 183.712 169.544,185.565 174.621,184.018 178.357 C 183.577 179.421,183.680 179.709,185.394 182.213 C 189.950 188.868,189.977 189.195,186.400 194.545 C 183.241 199.269,183.122 199.705,184.796 200.398 C 189.940 202.529,190.460 206.197,187.166 217.100 C 180.838 238.042,176.245 260.742,171.402 295.000 C 170.315 302.689,168.800 314.613,168.800 315.477 C 168.800 315.765,169.047 316.000,169.348 316.000 C 169.751 316.000,170.023 314.810,170.377 311.500 C 171.582 300.217,176.938 266.603,179.189 256.200 C 179.617 254.220,180.436 250.440,181.008 247.800 C 183.303 237.215,187.799 220.865,188.282 221.349 C 188.365 221.432,187.616 224.676,186.617 228.558 C 184.834 235.484,184.483 237.600,185.119 237.600 C 185.294 237.600,187.139 237.203,189.219 236.717 C 194.675 235.442,205.325 235.442,210.781 236.717 C 212.861 237.203,214.706 237.600,214.881 237.600 C 215.528 237.600,215.146 235.231,213.401 228.427 C 211.481 220.937,211.291 219.231,212.939 224.275 C 216.966 236.600,222.295 261.347,225.413 282.200 C 225.774 284.620,226.428 288.850,226.866 291.600 C 228.249 300.297,229.112 306.453,229.627 311.300 C 229.990 314.719,230.272 316.000,230.663 316.000 C 231.401 316.000,231.366 315.438,229.988 304.988 C 224.983 267.052,220.287 242.550,213.777 220.400 C 209.446 205.666,209.659 203.178,215.500 200.235 C 217.134 199.411,217.300 199.944,213.800 194.800 C 209.974 189.177,209.974 189.168,214.501 182.454 C 216.255 179.851,216.435 179.395,216.043 178.535 C 214.335 174.785,216.358 169.365,223.262 159.200 C 231.410 147.202,251.388 113.437,260.300 96.600 C 267.097 83.761,275.841 64.805,275.444 63.771 C 274.832 62.174,274.183 63.089,271.599 69.200 C 257.999 101.356,232.917 144.971,216.110 165.688 C 211.539 171.321,205.136 172.032,202.715 167.174 C 201.530 164.796,200.796 150.387,200.522 124.100 C 200.386 111.065,200.123 100.400,199.937 100.400 C 199.752 100.400,199.596 107.645,199.592 116.500 C 199.579 144.218,198.677 164.373,197.328 167.084 C 195.835 170.087,192.144 171.209,188.730 169.699 C 179.362 165.555,144.657 107.548,128.005 68.200 C 125.875 63.169,125.145 62.235,124.552 63.781 M127.698 63.693 C 127.285 64.201,129.400 69.321,134.277 79.623 L 136.276 83.846 139.471 85.508 C 149.417 90.683,173.802 96.000,187.589 96.000 C 195.365 96.000,195.562 95.465,189.700 90.271 C 173.421 75.846,155.206 66.953,136.400 64.251 C 129.148 63.208,128.144 63.144,127.698 63.693 M269.400 63.473 C 248.403 65.297,228.029 74.570,210.112 90.460 C 204.478 95.455,204.697 96.000,212.338 96.000 C 226.277 96.000,250.270 90.789,260.800 85.474 L 263.400 84.161 265.681 79.581 C 271.894 67.102,273.341 62.977,271.400 63.273 C 271.180 63.307,270.280 63.397,269.400 63.473 M276.866 63.877 C 276.634 64.311,276.007 65.821,275.472 67.233 C 274.938 68.645,272.848 73.369,270.827 77.730 C 266.648 86.751,266.682 86.469,269.538 88.464 C 278.564 94.770,309.671 101.768,311.991 98.015 C 313.031 96.332,316.451 80.788,317.035 75.092 L 317.294 72.560 313.747 70.924 C 302.154 65.576,278.387 61.035,276.866 63.877 M80.443 74.148 C 79.951 74.741,79.976 74.887,82.566 86.644 C 86.012 102.291,92.536 119.997,94.231 118.303 C 94.347 118.186,93.606 116.136,92.584 113.746 C 88.512 104.223,84.693 91.117,82.808 80.200 C 81.551 72.921,81.523 72.847,80.443 74.148 M318.229 74.500 C 318.127 74.995,317.756 77.110,317.405 79.200 C 315.351 91.442,312.135 102.585,307.432 113.764 C 306.422 116.165,305.704 118.235,305.837 118.364 C 306.843 119.347,310.669 110.710,314.325 99.200 C 315.894 94.261,320.160 74.993,319.858 74.206 C 319.506 73.288,318.440 73.481,318.229 74.500 M74.800 77.271 C 56.399 89.835,44.465 109.286,42.562 129.816 L 42.301 132.633 46.610 136.716 C 51.588 141.434,51.873 141.521,56.000 139.571 C 66.590 134.566,78.254 120.313,82.752 106.881 C 84.695 101.079,84.723 99.863,83.071 93.167 C 82.289 89.995,81.178 85.060,80.604 82.200 C 80.030 79.340,79.476 76.595,79.373 76.100 C 79.091 74.752,78.127 74.999,74.800 77.271 M320.405 77.500 C 319.154 83.877,317.822 89.872,316.703 94.169 C 313.642 105.919,323.440 124.849,338.400 136.088 C 346.196 141.946,347.801 142.013,353.390 136.716 L 357.699 132.633 357.441 129.850 C 355.551 109.517,344.191 90.681,326.110 77.900 C 321.334 74.524,320.994 74.501,320.405 77.500 M137.600 86.176 C 137.600 89.236,161.953 132.684,165.666 136.249 C 174.608 144.834,189.252 146.856,196.136 140.456 C 198.460 138.295,198.400 138.888,198.400 118.014 L 198.400 98.788 197.059 97.325 L 195.719 95.863 193.759 96.431 C 185.521 98.822,152.905 93.284,141.525 87.562 C 138.633 86.108,137.600 85.743,137.600 86.176 M258.800 87.413 C 247.503 93.312,214.491 98.897,205.983 96.348 C 204.306 95.845,204.293 95.849,202.950 97.316 L 201.600 98.788 201.600 118.014 C 201.600 138.888,201.540 138.295,203.864 140.456 C 212.095 148.109,230.389 143.550,237.797 132.000 C 243.231 123.528,261.017 90.623,262.174 86.900 C 262.555 85.674,261.955 85.765,258.800 87.413 M131.800 88.623 C 125.540 93.807,105.700 99.564,93.661 99.689 C 88.204 99.746,88.328 99.582,89.978 104.535 C 96.348 123.656,99.053 126.126,128.600 139.800 C 137.043 143.707,147.078 148.710,151.485 151.209 L 154.370 152.844 156.129 151.223 C 161.754 146.038,162.684 138.731,158.580 131.973 C 151.886 120.949,140.489 100.598,136.026 91.700 C 133.806 87.272,133.606 87.127,131.800 88.623 M264.000 91.893 C 259.140 101.353,248.728 119.894,242.595 130.009 C 239.124 135.733,238.800 136.513,238.800 139.148 C 238.800 143.590,240.925 148.575,244.005 151.357 L 245.653 152.846 247.927 151.561 C 253.411 148.460,259.030 145.645,271.003 140.000 C 296.873 127.804,302.292 124.012,305.821 115.637 C 308.495 109.293,310.840 102.664,310.921 101.226 L 311.000 99.800 306.454 99.720 C 294.274 99.507,277.194 94.689,269.150 89.198 C 266.147 87.148,266.544 86.941,264.000 91.893 M85.011 102.875 C 84.909 103.164,84.284 105.110,83.620 107.200 C 79.384 120.535,66.877 135.723,56.058 140.672 C 52.514 142.293,52.369 141.973,58.852 146.817 C 66.104 152.235,79.211 159.662,83.839 160.977 C 84.663 161.211,84.681 161.087,84.916 153.707 C 85.306 141.453,87.214 129.371,90.414 118.889 L 91.181 116.379 89.254 111.689 C 88.195 109.110,87.015 106.057,86.633 104.905 C 85.908 102.716,85.322 101.983,85.011 102.875 M314.157 103.033 C 314.010 103.455,312.813 106.543,311.498 109.896 C 309.872 114.042,309.171 116.345,309.304 117.096 C 309.412 117.703,310.137 120.630,310.916 123.600 C 313.514 133.515,315.188 146.083,315.196 155.727 L 315.200 161.254 316.100 160.984 C 321.684 159.308,333.807 152.375,342.500 145.885 C 347.480 142.168,347.549 141.998,344.539 140.846 C 334.051 136.832,320.386 120.322,316.182 106.586 C 314.963 102.602,314.558 101.891,314.157 103.033 M42.189 134.818 C 40.218 138.007,73.204 160.376,83.800 163.036 C 86.385 163.684,84.328 162.187,80.181 160.400 C 68.854 155.520,56.668 147.395,46.804 138.146 C 42.548 134.155,42.583 134.180,42.189 134.818 M355.654 135.928 C 347.127 144.893,330.827 155.904,318.404 161.090 C 315.436 162.329,313.988 163.591,316.159 163.046 C 326.202 160.526,358.000 139.341,358.000 135.171 C 358.000 134.001,357.260 134.239,355.654 135.928 M41.856 139.139 C 41.283 142.721,42.674 156.566,44.409 164.556 C 48.737 184.489,60.208 208.652,74.671 228.300 C 78.184 233.073,78.272 232.372,75.755 219.638 C 71.650 198.870,65.203 178.490,56.363 158.334 C 50.997 146.099,50.123 144.620,46.062 140.900 C 41.862 137.054,42.169 137.182,41.856 139.139 M353.711 141.119 C 350.198 144.433,349.907 144.840,347.644 149.600 C 336.254 173.558,328.089 198.671,323.415 224.127 C 321.608 233.968,321.789 233.891,330.132 221.278 C 348.090 194.129,356.830 170.268,358.242 144.543 C 358.685 136.466,358.662 136.448,353.711 141.119 M167.042 139.133 C 166.639 139.784,174.782 152.041,181.912 161.517 C 187.358 168.754,188.713 169.806,192.220 169.515 C 194.405 169.334,195.926 168.416,196.836 166.728 C 197.579 165.349,198.802 141.336,198.162 140.695 C 198.030 140.564,197.039 141.092,195.959 141.868 C 188.961 146.895,179.172 146.348,169.759 140.404 C 168.373 139.529,167.150 138.957,167.042 139.133 M162.235 139.675 C 162.147 139.964,161.877 141.280,161.636 142.600 C 161.079 145.653,159.275 149.295,157.179 151.600 L 155.543 153.399 156.471 154.120 C 156.982 154.516,158.923 155.902,160.784 157.200 C 166.066 160.884,171.441 165.824,177.185 172.274 C 183.132 178.953,183.350 179.081,183.524 176.018 C 183.696 172.988,182.297 168.886,179.908 165.414 C 174.350 157.334,169.777 150.411,166.619 145.292 C 162.979 139.392,162.505 138.785,162.235 139.675 M229.600 140.802 C 221.321 145.903,211.860 146.727,205.672 142.885 C 204.710 142.288,203.501 141.535,202.985 141.211 C 201.473 140.262,201.429 140.705,201.965 151.658 C 202.774 168.204,203.028 168.992,207.703 169.475 C 212.021 169.921,216.154 165.484,227.710 148.000 C 234.245 138.112,234.299 137.907,229.600 140.802 M236.896 139.704 C 236.678 139.977,234.565 143.350,232.199 147.200 C 228.162 153.768,223.803 160.335,220.355 165.044 C 216.259 170.636,214.560 181.564,218.465 177.200 C 229.533 164.829,232.765 161.718,239.244 157.197 C 241.090 155.909,243.028 154.519,243.551 154.109 L 244.501 153.362 242.483 151.056 C 240.266 148.522,238.656 144.998,238.209 141.700 C 237.907 139.466,237.535 138.902,236.896 139.704 M52.895 147.622 C 53.016 148.160,54.457 151.570,56.099 155.200 C 66.424 178.034,73.369 200.311,77.609 224.200 C 78.643 230.021,78.768 230.179,80.425 227.736 C 84.536 221.673,94.793 211.114,100.500 207.072 C 103.355 205.050,103.367 205.228,100.057 200.819 C 93.262 191.771,87.541 178.668,85.990 168.600 C 85.382 164.658,85.719 164.974,79.200 162.213 C 72.656 159.440,67.720 156.711,60.478 151.864 C 57.467 149.849,54.480 147.850,53.840 147.422 L 52.677 146.643 52.895 147.622 M343.227 149.424 C 334.705 155.432,327.234 159.639,319.227 162.935 C 314.414 164.917,314.755 164.466,313.644 170.310 C 311.582 181.148,306.191 192.895,299.150 201.891 C 297.163 204.430,296.808 205.363,297.700 205.707 C 301.068 207.007,315.048 221.087,319.571 227.736 C 321.247 230.200,321.411 229.996,322.417 224.186 C 326.574 200.176,334.588 175.120,345.921 150.706 C 347.955 146.324,347.757 146.230,343.227 149.424 M179.448 203.390 C 175.831 207.415,169.496 212.636,164.859 215.412 C 160.587 217.970,160.319 218.239,157.982 222.334 C 156.030 225.753,155.938 225.580,160.592 227.221 C 166.795 229.408,172.267 231.997,176.282 234.644 C 180.842 237.651,180.663 237.612,181.156 235.700 C 182.812 229.288,184.228 224.245,185.621 219.800 C 189.253 208.216,189.367 207.488,188.022 204.525 C 185.912 199.877,182.956 199.486,179.448 203.390 M214.600 201.519 C 212.677 202.832,211.200 205.555,211.200 207.786 C 211.200 209.440,211.546 210.735,214.410 219.800 C 215.855 224.377,218.248 232.938,218.966 236.100 C 219.301 237.580,219.479 237.534,223.203 234.998 C 227.788 231.876,239.844 226.400,242.134 226.400 C 245.420 226.400,241.004 218.663,236.220 216.037 C 231.823 213.623,227.257 210.015,222.187 204.944 C 217.260 200.017,216.983 199.892,214.600 201.519 M202.374 204.587 C 204.117 205.488,206.525 208.465,208.115 211.686 C 210.194 215.898,210.345 217.170,208.317 213.400 C 201.904 201.473,197.766 201.473,191.746 213.400 C 190.747 215.380,190.042 216.460,190.180 215.800 C 191.691 208.557,198.300 202.480,202.374 204.587 M100.761 207.836 C 95.072 211.970,82.904 225.075,80.405 229.759 L 79.530 231.400 80.865 229.976 C 81.599 229.193,83.541 226.971,85.179 225.040 C 88.820 220.746,98.527 211.317,101.800 208.894 C 103.120 207.917,104.200 206.926,104.200 206.692 C 104.200 205.735,103.189 206.072,100.761 207.836 M295.826 206.357 C 295.705 206.554,296.909 207.764,298.503 209.047 C 302.877 212.569,312.014 221.637,316.290 226.700 C 320.474 231.655,320.791 231.934,319.615 229.629 C 316.218 222.970,297.111 204.278,295.826 206.357 M102.200 209.472 C 98.559 212.310,86.931 224.095,83.402 228.523 C 79.767 233.085,79.706 232.788,84.720 234.935 C 101.067 241.934,122.026 258.887,129.237 270.943 C 131.139 274.123,131.050 274.188,133.596 267.800 C 137.941 256.895,144.029 243.035,148.262 234.408 C 152.704 225.356,152.856 224.963,152.434 223.555 C 151.746 221.261,151.367 221.124,147.767 221.867 C 133.333 224.850,120.199 221.057,108.897 210.643 C 105.000 207.052,105.247 207.096,102.200 209.472 M291.479 210.319 C 280.165 221.003,266.954 224.889,252.233 221.864 C 248.641 221.126,248.357 221.232,247.654 223.578 C 247.185 225.143,247.229 225.265,250.820 232.440 C 255.625 242.038,263.048 258.911,266.992 269.200 C 268.062 271.993,268.997 273.591,269.316 273.176 C 269.391 273.079,270.460 271.470,271.693 269.600 C 279.716 257.426,299.501 241.691,315.280 234.935 C 320.080 232.880,320.074 232.890,317.965 230.150 C 311.910 222.287,296.850 207.600,294.843 207.600 C 294.576 207.600,293.063 208.823,291.479 210.319 M155.192 223.300 C 149.178 233.463,134.845 265.725,129.002 282.251 C 128.175 284.592,128.400 285.798,129.605 285.483 C 130.222 285.322,130.400 285.474,130.400 286.161 C 130.400 288.654,167.942 316.739,168.015 314.300 C 168.023 314.025,168.448 310.470,168.959 306.400 C 170.051 297.715,170.131 298.068,166.275 294.704 C 157.944 287.438,146.694 280.850,138.000 278.145 C 133.293 276.681,133.704 276.455,131.743 281.584 C 129.479 287.503,130.288 284.079,133.161 275.573 C 136.566 265.495,138.347 260.985,142.376 252.231 C 146.945 242.304,155.208 225.404,156.922 222.479 C 158.454 219.865,158.674 219.200,158.009 219.200 C 157.794 219.200,156.526 221.045,155.192 223.300 M241.600 219.608 C 241.600 219.832,242.053 220.734,242.607 221.611 C 247.075 228.688,261.534 260.116,265.330 271.000 C 269.367 282.573,270.972 288.607,267.966 280.904 C 266.330 276.712,266.391 276.735,261.285 278.411 C 252.384 281.332,240.102 288.751,232.700 295.678 C 229.970 298.233,230.011 297.918,231.200 307.400 C 231.640 310.908,232.000 314.008,232.000 314.289 C 232.000 314.570,232.294 314.800,232.653 314.800 C 234.085 314.800,255.303 298.936,267.900 288.446 C 269.211 287.354,269.601 286.753,269.606 285.815 C 269.610 284.956,269.716 284.763,269.966 285.158 C 270.174 285.488,270.603 285.608,271.011 285.451 C 272.071 285.044,271.630 283.375,268.174 274.721 C 257.419 247.789,248.731 229.003,242.954 220.187 C 242.292 219.176,241.600 218.880,241.600 219.608 M153.673 220.422 C 152.970 220.704,152.777 221.053,152.873 221.866 C 153.057 223.417,153.857 223.455,154.767 221.958 C 155.867 220.149,155.531 219.677,153.673 220.422 M244.654 220.312 C 244.378 220.759,245.860 223.200,246.407 223.200 C 247.085 223.200,247.587 221.466,247.060 220.943 C 246.409 220.296,244.908 219.902,244.654 220.312 M151.227 235.657 C 143.264 252.092,136.519 267.604,134.785 273.470 C 134.227 275.357,134.460 276.400,135.440 276.400 C 140.756 276.400,158.322 286.245,167.149 294.172 C 170.218 296.928,170.142 296.991,170.974 291.000 C 172.879 277.281,176.754 255.128,179.041 244.880 C 180.345 239.033,180.278 238.590,177.800 236.706 C 173.614 233.524,161.166 227.909,157.043 227.344 L 155.367 227.114 151.227 235.657 M238.600 228.588 C 233.737 230.265,224.932 234.629,222.200 236.716 C 219.665 238.652,219.666 238.634,222.097 250.200 C 223.931 258.926,227.142 277.673,228.845 289.600 C 229.919 297.114,229.857 297.030,232.489 294.541 C 240.398 287.062,256.162 278.011,263.660 276.645 C 265.959 276.226,266.070 275.796,264.813 272.200 C 261.781 263.526,256.645 251.808,248.904 235.900 C 243.991 225.805,244.867 226.426,238.600 228.588 M79.600 234.515 C 79.600 235.117,85.597 242.625,91.330 249.200 C 100.387 259.587,126.066 284.257,127.320 283.775 C 128.330 283.388,130.543 275.786,130.054 274.383 C 128.577 270.147,119.834 260.039,112.000 253.511 C 101.530 244.787,79.600 231.929,79.600 234.515 M313.163 237.114 C 294.279 246.657,276.423 261.866,270.365 273.566 L 269.451 275.331 270.782 279.264 C 271.514 281.426,272.345 283.389,272.629 283.624 C 274.277 284.991,304.475 254.869,316.729 239.636 C 322.187 232.851,321.942 232.678,313.163 237.114 M193.000 236.989 C 188.642 237.682,185.191 238.638,184.482 239.347 C 182.989 240.840,178.126 265.472,174.266 291.096 C 173.135 298.604,172.905 298.242,178.029 297.032 C 190.410 294.107,209.511 294.087,221.775 296.985 C 226.749 298.160,226.828 298.127,226.344 295.079 C 226.163 293.935,225.645 290.480,225.193 287.400 C 222.160 266.730,217.010 240.924,215.630 239.483 C 213.435 237.190,200.611 235.777,193.000 236.989 M188.000 296.238 C 183.985 296.750,177.872 297.936,174.723 298.813 C 173.911 299.040,173.149 299.534,173.031 299.912 C 172.581 301.356,171.208 311.933,171.106 314.742 L 171.000 317.685 175.800 320.961 C 183.962 326.531,199.237 336.000,200.060 336.000 C 201.337 336.000,228.663 318.422,229.082 317.331 C 229.310 316.736,228.536 309.346,227.527 302.487 C 227.020 299.036,227.253 299.207,221.200 297.854 C 211.423 295.670,197.697 295.002,188.000 296.238 " stroke="none" fill="#f80404" fill-rule="evenodd"></path><path id="path2" d="M114.305 54.683 C 114.802 54.779,115.522 54.775,115.905 54.675 C 116.287 54.575,115.880 54.496,115.000 54.501 C 114.120 54.505,113.807 54.587,114.305 54.683 M130.100 54.676 C 130.485 54.776,131.115 54.776,131.500 54.676 C 131.885 54.575,131.570 54.493,130.800 54.493 C 130.030 54.493,129.715 54.575,130.100 54.676 M268.705 54.683 C 269.202 54.779,269.922 54.775,270.305 54.675 C 270.687 54.575,270.280 54.496,269.400 54.501 C 268.520 54.505,268.207 54.587,268.705 54.683 M284.305 54.683 C 284.802 54.779,285.522 54.775,285.905 54.675 C 286.287 54.575,285.880 54.496,285.000 54.501 C 284.120 54.505,283.807 54.587,284.305 54.683 M343.000 80.400 C 344.528 81.940,345.869 83.200,345.979 83.200 C 346.089 83.200,344.928 81.940,343.400 80.400 C 341.872 78.860,340.531 77.600,340.421 77.600 C 340.311 77.600,341.472 78.860,343.000 80.400 M56.587 80.500 L 54.200 83.000 56.700 80.613 C 58.075 79.299,59.200 78.174,59.200 78.113 C 59.200 77.817,58.805 78.178,56.587 80.500 M194.600 83.200 C 195.459 84.080,196.252 84.800,196.362 84.800 C 196.472 84.800,195.859 84.080,195.000 83.200 C 194.141 82.320,193.348 81.600,193.238 81.600 C 193.128 81.600,193.741 82.320,194.600 83.200 M204.778 83.500 L 203.400 85.000 204.900 83.622 C 206.296 82.338,206.584 82.000,206.278 82.000 C 206.212 82.000,205.537 82.675,204.778 83.500 M366.901 133.000 C 366.905 133.880,366.987 134.193,367.083 133.695 C 367.179 133.198,367.175 132.478,367.075 132.095 C 366.975 131.713,366.896 132.120,366.901 133.000 M32.901 133.400 C 32.905 134.280,32.987 134.593,33.083 134.095 C 33.179 133.598,33.175 132.878,33.075 132.495 C 32.975 132.113,32.896 132.520,32.901 133.400 M367.340 141.600 C 367.340 143.470,367.409 144.235,367.493 143.300 C 367.577 142.365,367.577 140.835,367.493 139.900 C 367.409 138.965,367.340 139.730,367.340 141.600 M32.901 149.800 C 32.905 150.680,32.987 150.993,33.083 150.495 C 33.179 149.998,33.175 149.278,33.075 148.895 C 32.975 148.513,32.896 148.920,32.901 149.800 M366.901 150.200 C 366.905 151.080,366.987 151.393,367.083 150.895 C 367.179 150.398,367.175 149.678,367.075 149.295 C 366.975 148.913,366.896 149.320,366.901 150.200 M102.300 153.428 C 101.490 154.253,103.020 162.074,105.068 167.583 C 116.361 197.947,138.474 212.417,159.136 202.962 C 164.054 200.712,170.421 195.440,172.978 191.500 L 173.691 190.401 171.421 187.626 C 163.095 177.449,148.806 166.853,136.534 161.757 C 124.953 156.947,103.878 151.820,102.300 153.428 M293.400 153.476 C 270.203 156.486,249.619 166.429,233.553 182.385 C 225.424 190.459,225.519 190.119,230.044 194.964 C 249.028 215.292,276.753 206.535,291.587 175.525 C 295.506 167.331,298.753 156.139,297.874 153.849 C 297.626 153.202,296.339 153.094,293.400 153.476 M312.181 258.900 L 310.600 260.600 312.300 259.019 C 313.881 257.548,314.184 257.200,313.881 257.200 C 313.816 257.200,313.051 257.965,312.181 258.900 M87.800 259.200 C 88.659 260.080,89.452 260.800,89.562 260.800 C 89.672 260.800,89.059 260.080,88.200 259.200 C 87.341 258.320,86.548 257.600,86.438 257.600 C 86.328 257.600,86.941 258.320,87.800 259.200 M306.191 265.300 L 303.000 268.600 306.300 265.409 C 309.365 262.446,309.782 262.000,309.491 262.000 C 309.430 262.000,307.945 263.485,306.191 265.300 M98.600 270.400 C 102.776 274.580,106.282 278.000,106.392 278.000 C 106.502 278.000,103.176 274.580,99.000 270.400 C 94.824 266.220,91.318 262.800,91.208 262.800 C 91.098 262.800,94.424 266.220,98.600 270.400 M300.575 270.900 L 299.400 272.200 300.700 271.025 C 301.415 270.379,302.000 269.794,302.000 269.725 C 302.000 269.416,301.670 269.688,300.575 270.900 M295.791 275.700 L 292.600 279.000 295.900 275.809 C 298.965 272.846,299.382 272.400,299.091 272.400 C 299.030 272.400,297.545 273.885,295.791 275.700 M109.983 281.300 C 111.641 283.066,112.000 283.384,112.000 283.083 C 112.000 283.019,111.145 282.164,110.100 281.183 L 108.200 279.400 109.983 281.300 M289.200 281.800 C 288.228 282.790,287.523 283.600,287.633 283.600 C 287.743 283.600,288.628 282.790,289.600 281.800 C 290.572 280.810,291.277 280.000,291.167 280.000 C 291.057 280.000,290.172 280.810,289.200 281.800 M113.200 284.125 C 113.200 284.194,113.785 284.779,114.500 285.425 L 115.800 286.600 114.625 285.300 C 113.530 284.088,113.200 283.816,113.200 284.125 M284.975 285.700 L 283.800 287.000 285.100 285.825 C 285.815 285.179,286.400 284.594,286.400 284.525 C 286.400 284.216,286.070 284.488,284.975 285.700 M116.800 287.325 C 116.800 287.394,117.385 287.979,118.100 288.625 L 119.400 289.800 118.225 288.500 C 117.130 287.288,116.800 287.016,116.800 287.325 " stroke="none" fill="#ffffff" fill-rule="evenodd"></path></g></svg>